# xmcd
#
# Track frame offsets:
# 150
# 17702
# 34222
# 46453
# 62933
# 79032
# 94814
# 110529
# 124996
# 138828
# 151151
# 164719
# 177588
# 192143
#
# Disc length: 2765 seconds
#
#
# Revision: 0
# Processed by: cddbd v1.5.2PL0 Copyright (c) Steve Scherf et al.
# Submitted via: FreeRIP 2.90 
#
DISCID=c10acb0e
DTITLE=Varios - Raizes Sertanejas Vol 2
DYEAR=2012
DGENRE=sertaneja
TTITLE0=As Galvao - Chico Mineiro
TTITLE1=Liu e Leu - Caminheiro
TTITLE2=Pedro Bento e Ze da Estrada - O mineiro e o italiano
TTITLE3=Murilo e Marcelo - Paineira velha
TTITLE4=Trio Parada Dura - Estrela de ouro
TTITLE5=Jads e Jadson - Vide vida marvada
TTITLE6=Roby e Roger - Franguinho na panela
TTITLE7=Joao Mulato e Douradinho - O pulo do gato
TTITLE8=Chico Rey e Parana - Retalhos de amor
TTITLE9=Barra da Saia - Beijinho doce
TTITLE10=Zico e Zeca - A enxada e a caneta
TTITLE11=Julinho e Janel - Pombinha mensageira
TTITLE12=Jad e Jeferson - Escolta de vagalumes
TTITLE13=Sergio Reis e Filhos - O menino da porteira
EXTD=
EXTT0=
EXTT1=
EXTT2=
EXTT3=
EXTT4=
EXTT5=
EXTT6=
EXTT7=
EXTT8=
EXTT9=
EXTT10=
EXTT11=
EXTT12=
EXTT13=
PLAYORDER=
